<?xml version="1.0" encoding="iso-8859-1"?>
<!-- Generator: Adobe Illustrator 19.0.0, SVG Export Plug-In . SVG Version: 6.00 Build 0)  -->
<svg version="1.1" id="Capa_1" xmlns="http://www.w3.org/2000/svg" xmlns:xlink="http://www.w3.org/1999/xlink" x="0px" y="0px"
	 viewBox="0 0 512 512" style="enable-background:new 0 0 512 512;" xml:space="preserve">
<g>
	<g>
		<path d="M422.675,326.069c3.463-92.091,12.706-185.587,28.12-278.094c0.145-1.148,0.189-2.269,0.137-3.362
			C448.881,2.222,301.101,0.5,256,0.5c-72.832,0-195,5.845-195,45c0,1.161,0.526,4.374,0.615,4.907
			c15.095,90.612,24.269,183.675,27.715,275.66C32.459,345.573,0,373.823,0,406.5c0,68.203,132.382,105,256,105s256-36.797,256-105
			C512,373.825,479.542,345.575,422.675,326.069z M391,403.984c-10.43,6.914-57.539,18.516-135,18.516s-124.57-11.602-135-18.516
			c-0.015-9.326-0.485-18.677-0.621-28.011C160.115,390.901,229.131,392.5,256,392.5s95.885-1.599,135.621-16.527
			C391.485,385.308,391.015,394.659,391,403.984z M256,60.5c-79.028,0-130.972-8.027-154.072-15c23.101-6.973,75.044-15,154.072-15
			s130.972,8.027,154.072,15C386.972,52.473,335.028,60.5,256,60.5z"/>
	</g>
</g>
<g>
</g>
<g>
</g>
<g>
</g>
<g>
</g>
<g>
</g>
<g>
</g>
<g>
</g>
<g>
</g>
<g>
</g>
<g>
</g>
<g>
</g>
<g>
</g>
<g>
</g>
<g>
</g>
<g>
</g>
</svg>
